<mxfile host="app.diagrams.net" modified="2020-03-14T08:22:04.122Z" agent="Mozilla/5.0 (Windows NT 10.0; Win64; x64) AppleWebKit/537.36 (KHTML, like Gecko) Chrome/80.0.3987.132 Safari/537.36" etag="NC3vWPJ7JPez85_iM6mR" version="12.8.4" type="github">
  <diagram id="fksGYH9S7rFBsLQBP5vs" name="Page-1">
    <mxGraphModel dx="1102" dy="882" grid="1" gridSize="10" guides="1" tooltips="1" connect="1" arrows="1" fold="1" page="1" pageScale="1" pageWidth="827" pageHeight="1169" math="0" shadow="0">
      <root>
        <mxCell id="0" />
        <mxCell id="1" parent="0" />
        <mxCell id="CKgAutI4KzxsOcHacs_i-3" value="" style="edgeStyle=orthogonalEdgeStyle;rounded=0;orthogonalLoop=1;jettySize=auto;html=1;" edge="1" parent="1" source="CKgAutI4KzxsOcHacs_i-1" target="CKgAutI4KzxsOcHacs_i-2">
          <mxGeometry relative="1" as="geometry" />
        </mxCell>
        <mxCell id="CKgAutI4KzxsOcHacs_i-1" value="test" style="rounded=0;whiteSpace=wrap;html=1;" vertex="1" parent="1">
          <mxGeometry x="160" y="240" width="120" height="60" as="geometry" />
        </mxCell>
        <mxCell id="CKgAutI4KzxsOcHacs_i-2" value="result" style="rounded=0;whiteSpace=wrap;html=1;" vertex="1" parent="1">
          <mxGeometry x="360" y="240" width="120" height="60" as="geometry" />
        </mxCell>
      </root>
    </mxGraphModel>
  </diagram>
</mxfile>
